<?xml version="1.0" encoding="UTF-8"?>
<!DOCTYPE svg PUBLIC "-//W3C//DTD SVG 1.1//EN" "http://www.w3.org/Graphics/SVG/1.1/DTD/svg11.dtd">
<!-- Creator: CorelDRAW -->
<svg xmlns="http://www.w3.org/2000/svg" xml:space="preserve" width="6.6128mm" height="8.6692mm" version="1.1" style="shape-rendering:geometricPrecision; text-rendering:geometricPrecision; image-rendering:optimizeQuality; fill-rule:evenodd; clip-rule:evenodd"
viewBox="0 0 30.89 40.5"
 xmlns:xlink="http://www.w3.org/1999/xlink"
 xmlns:xodm="http://www.corel.com/coreldraw/odm/2003">
 <defs>
  <style type="text/css">
   <![CDATA[
    .fil0 {fill:#666666;fill-rule:nonzero}
   ]]>
  </style>
 </defs>
 <g id="Слой_x0020_1">
  <metadata id="CorelCorpID_0Corel-Layer"/>
  <path class="fil0" d="M14.29 0l0 7.15 -7.15 0c0,-3.94 3.2,-7.15 7.15,-7.15l0 0z"/>
  <path class="fil0" d="M14.29 26.21l0 14.29 -14.29 0c0,-7.89 6.4,-14.29 14.29,-14.29l0 0z"/>
  <path class="fil0" d="M30.89 26.21l0 0c0,7.89 -6.4,14.29 -14.29,14.29l0 0 0 -14.29 14.29 0z"/>
  <path class="fil0" d="M30.89 23.82l0 0c0,0 -14.29,0 -14.29,0l0 -14.29 0 0c7.89,0 14.29,6.4 14.29,14.29z"/>
  <path class="fil0" d="M-0 9.53c0,7.89 6.4,14.29 14.29,14.29l0 -14.29 -14.29 0zm9.81 3.59c-0.49,0 -0.89,-0.4 -0.89,-0.89 0,-0.49 0.4,-0.89 0.89,-0.89 0.49,0 0.89,0.4 0.89,0.89 0,0.49 -0.4,0.89 -0.89,0.89z"/>
 </g>
</svg>
